<svg xmlns="http://www.w3.org/2000/svg" width="14.995" height="9.684" viewBox="409.998 906.16 14.995 9.684"><path d="m418.287 915.514 6.375-6.375a1.108 1.108 0 0 0 .31-.578 1.124 1.124 0 0 0-.242-.937 1.145 1.145 0 0 0-.068-.074l-1.059-1.06a1.108 1.108 0 0 0-.578-.31 1.124 1.124 0 0 0-.937.243 1.146 1.146 0 0 0-.074.068l-4.519 4.518-4.518-4.518a1.12 1.12 0 0 0-1.516-.068 1.146 1.146 0 0 0-.074.068l-1.059 1.059a1.108 1.108 0 0 0-.31.578c-.063.323.018.67.242.937a1.145 1.145 0 0 0 .068.074l6.375 6.375a1.123 1.123 0 0 0 .541.301c.366.085.764-.015 1.043-.3Z" fill="#2e2b2b" fill-rule="evenodd" data-name="Path 891"/></svg>