<svg xmlns="http://www.w3.org/2000/svg" width="17" height="17" viewBox="1320 57.125 17 17"><path d="m1336.515 69.138-3.719-1.594a.594.594 0 0 0-.053-.02.984.984 0 0 0-.252-.044.446.446 0 0 0-.007 0 .92.92 0 0 0-.55.223.601.601 0 0 0-.068.07l-1.646 2.012c-2.207-1.04-4.843-3.676-5.884-5.883l2.012-1.647a.688.688 0 0 0 .126-.138.955.955 0 0 0 .163-.407.573.573 0 0 0 .005-.071.578.578 0 0 0-.003-.052.967.967 0 0 0-.061-.261l-1.594-3.72a.795.795 0 0 0-.262-.312.897.897 0 0 0-.336-.154.66.66 0 0 0-.138-.015.578.578 0 0 0-.028.001c-.047.002-.106.01-.145.018a.447.447 0 0 0-.004.001l-3.453.797a.835.835 0 0 0-.618.777 15.405 15.405 0 0 0 15.406 15.406c.35 0 .698-.277.777-.618l.797-3.453a.581.581 0 0 0 .006-.028c.007-.044.013-.1.014-.14a.465.465 0 0 0 0-.009.663.663 0 0 0-.015-.137c-.054-.252-.244-.504-.47-.602Z" fill="#fff" fill-rule="evenodd" data-name="Path 880"/></svg>