<svg id="home" xmlns="http://www.w3.org/2000/svg" fill="#fff" width="30" height="30" viewBox="70.999 258.502 27.002 20.998"><path d="m97.794 268.788-3.92-3.23v-6.493a.563.563 0 0 0-.562-.563h-2.625a.563.563 0 0 0-.562.563v3.403l-4.197-3.452a1.805 1.805 0 0 0-.273-.182 2.85 2.85 0 0 0-.928-.314 1.658 1.658 0 0 0-.228-.017 1.686 1.686 0 0 0-.247.02c-.318.047-.68.176-.96.34a1.72 1.72 0 0 0-.223.153l-11.866 9.772a.485.485 0 0 0-.086.096.678.678 0 0 0-.114.286.406.406 0 0 0-.004.051c0 .09.038.214.09.303a.43.43 0 0 0 .04.056l1.195 1.453a.485.485 0 0 0 .096.087c.1.07.232.118.338.118a.421.421 0 0 0 .062-.005.712.712 0 0 0 .24-.085.43.43 0 0 0 .056-.039l11.026-9.081a.457.457 0 0 1 .069-.045.674.674 0 0 1 .29-.082c.111 0 .272.057.358.127l11.027 9.081a.451.451 0 0 0 .068.046.662.662 0 0 0 .29.084.44.44 0 0 0 .084-.009.684.684 0 0 0 .302-.147.423.423 0 0 0 .048-.049l1.195-1.453a.667.667 0 0 0 .124-.3.415.415 0 0 0 .004-.057.44.44 0 0 0-.008-.083.682.682 0 0 0-.151-.307.422.422 0 0 0-.048-.046Zm-13.652-4.838-8.642 7.118v7.682a.75.75 0 0 0 .75.75l5.253-.014a.751.751 0 0 0 .746-.75v-4.486a.75.75 0 0 1 .75-.75h3a.75.75 0 0 1 .75.75v4.483a.75.75 0 0 0 .75.752l5.25.015a.75.75 0 0 0 .75-.75v-7.687l-8.64-7.113a.457.457 0 0 0-.068-.045.674.674 0 0 0-.29-.082.428.428 0 0 0-.062.005.678.678 0 0 0-.297.122Z" fill-rule="evenodd" data-name="Path 869"/></svg>