<svg xmlns="http://www.w3.org/2000/svg" width="10" height="10" viewBox="364.999 272.375 44.251 59"><path d="M387.125 272.375c-12.226 0-22.125 9.912-22.125 22.125a23.628 23.628 0 0 0 .202 3.287c.841 6.038 4.621 10.793 16.909 30.472a1170.096 1170.096 0 0 1 .32.514c2.165 3.471 7.225 3.467 9.387 0a1168.343 1168.343 0 0 1 .135-.216c14.17-22.709 17.143-25.738 17.29-33.417a33.205 33.205 0 0 0 .007-.64 22.125 22.125 0 0 0-22.125-22.125Zm0 53.469a1372.25 1372.25 0 0 0-.14-.226c-14.556-23.328-16.454-24.825-16.454-31.118 0-9.164 7.43-16.594 16.594-16.594 9.164 0 16.594 7.43 16.594 16.594a18.615 18.615 0 0 1-.128 2.369c-.596 4.683-3.652 8.428-16.466 28.975Zm-9.219-31.344a9.219 9.219 0 0 0 9.219 9.219 9.219 9.219 0 0 0 9.219-9.219 9.219 9.219 0 0 0-18.438 0Z" fill-rule="evenodd" data-name="Create New"/></svg>