<svg width="62" height="65" viewBox="0 0 62 65" fill="none" xmlns="http://www.w3.org/2000/svg">
<g clip-path="url(#clip0_221_257)">
<path d="M48.22 31.532L22.062 44.932V17.711L48.22 31.532Z" fill="white"/>
<path d="M61.082 42.51C59.4435 47.1713 56.7541 51.393 53.222 54.848C50.2995 57.9131 46.7544 60.3168 42.8252 61.8973C38.8961 63.4779 34.674 64.1986 30.443 64.011C26.3742 63.967 22.3577 63.0882 18.6423 61.429C14.9268 59.7697 11.5916 57.3655 8.843 54.365C5.98156 51.43 3.7275 47.9591 2.21004 44.1513C0.692579 40.3435 -0.0584508 36.2736 1.4375e-06 32.175C-0.0579882 27.8951 0.758199 23.6485 2.39859 19.695C4.03898 15.7416 6.46905 12.1646 9.54 9.18301C12.45 6.1162 15.9851 3.71067 19.9059 2.12941C23.8267 0.548141 28.0416 -0.17192 32.265 0.0180059C36.35 0.103767 40.3751 1.01728 44.0968 2.70327C47.8186 4.38927 51.1597 6.81271 53.918 9.82701C57.0516 13.0808 59.4596 16.9622 60.983 21.215H52.194C51.0499 18.8714 49.5464 16.7211 47.738 14.842C45.7123 12.6366 43.2446 10.883 40.4956 9.69548C37.7467 8.50795 34.7783 7.9132 31.784 7.95001C28.6843 7.8641 25.601 8.42805 22.7323 9.60557C19.8637 10.7831 17.2734 12.5481 15.128 14.787C12.9046 16.97 11.1412 19.5764 9.94183 22.4523C8.74247 25.3281 8.1315 28.4151 8.145 31.531C7.93097 37.8004 10.2112 43.899 14.486 48.49C16.4745 50.805 18.9268 52.6766 21.6843 53.9839C24.4419 55.2912 27.4432 56.005 30.494 56.079C33.7112 56.2988 36.9362 55.7827 39.9241 54.5698C42.912 53.3569 45.5843 51.4791 47.738 49.079C49.5937 47.1387 51.1367 44.9219 52.312 42.508L61.082 42.51ZM0.652001 62.62L0.674001 62.459V62.62H0.652001Z" fill="white"/>
</g>
<defs>
<clipPath id="clip0_221_257">
<rect width="61.082" height="64.03" fill="white"/>
</clipPath>
</defs>
</svg>
