<svg xmlns="http://www.w3.org/2000/svg" width="82.133" height="57.75" viewBox="0 0 82.133 57.75">
  <path id="Create_New" data-name="Create New" d="M82.663-48.714A10.32,10.32,0,0,0,75.4-56.022C69-57.75,43.312-57.75,43.312-57.75s-25.684,0-32.089,1.727a10.32,10.32,0,0,0-7.261,7.308c-1.716,6.447-1.716,19.9-1.716,19.9s0,13.451,1.716,19.9a10.166,10.166,0,0,0,7.261,7.192C17.629,0,43.312,0,43.312,0S69,0,75.4-1.727a10.166,10.166,0,0,0,7.261-7.192c1.716-6.447,1.716-19.9,1.716-19.9S84.379-42.267,82.663-48.714ZM34.912-16.6V-41.029L56.379-28.816Z" transform="translate(-2.246 57.75)" fill="#fafafa"/>
</svg>
