<svg xmlns="http://www.w3.org/2000/svg" width="24.219" height="24.219" viewBox="669.391 6324.516 24.219 24.219"><path d="M681.5 6324.516a12.111 12.111 0 0 0-12.11 12.109 12.109 12.109 0 0 0 12.11 12.11c6.687 0 12.11-5.42 12.11-12.11 0-6.685-5.423-12.11-12.11-12.11Zm-9.766 12.109a9.76 9.76 0 0 0 9.766 9.766 9.76 9.76 0 0 0 9.766-9.766 9.762 9.762 0 0 0-9.766-9.766 9.762 9.762 0 0 0-9.766 9.766Zm5.267-3.586 1.359 1.03a.586.586 0 0 0 .813-.104 14.899 14.899 0 0 1 .272-.334c.606-.72 1.13-1.13 2.118-1.13a2.282 2.282 0 0 1 .402.038c.453.081.908.293 1.205.6a1.093 1.093 0 0 1 .336.764 1.001 1.001 0 0 1-.342.754c-.24.232-.596.44-1.041.69-1 .56-2.323 1.258-2.323 3.004v.422a.586.586 0 0 0 .586.586h2.228a.586.586 0 0 0 .586-.586v-.309a.711.711 0 0 1 .24-.507c.79-.794 3.256-1.267 3.296-3.96a4.487 4.487 0 0 0 0-.067c0-2.32-2.262-4.112-4.525-4.317a4.751 4.751 0 0 0-.428-.02 6.461 6.461 0 0 0-1.791.234c-1.32.379-2.3 1.208-3.12 2.413a.587.587 0 0 0 .108.782.594.594 0 0 0 .021.017Zm6.55 9.055c0-1.131-.92-2.051-2.051-2.051-1.13 0-2.05.92-2.05 2.05a2.053 2.053 0 0 0 2.05 2.052 2.053 2.053 0 0 0 2.05-2.051Z" fill="#777" fill-rule="evenodd" data-name="Path 890"/></svg>