<svg xmlns="http://www.w3.org/2000/svg" width="23.25" height="23.25" viewBox="75.375 657.375 23.25 23.25"><path d="M98.625 669c0-6.418-5.205-11.625-11.625-11.625S75.375 662.582 75.375 669A11.624 11.624 0 0 0 87 680.625 11.624 11.624 0 0 0 98.625 669Zm-9.75 2v.063c0 .31-.252.562-.563.562h-2.625a.563.563 0 0 1-.562-.562v-.188c0-1.925 1.46-2.694 2.562-3.312.508-.285.911-.521 1.175-.788a1.091 1.091 0 0 0 .35-.805c0-.928-1.185-1.545-2.142-1.545a3.037 3.037 0 0 0-.685.072c-.828.19-1.33.755-2.001 1.606a.56.56 0 0 1-.318.2.562.562 0 0 1-.464-.1l-1.626-1.233a.56.56 0 0 1-.212-.338.563.563 0 0 1 .085-.425 7.166 7.166 0 0 1 1.869-1.97c.965-.663 2.127-1.018 3.594-1.018 2.642 0 5.462 2.062 5.462 4.781 0 3.61-3.899 3.666-3.899 5ZM87 672.844c1.189 0 2.156.967 2.156 2.156A2.159 2.159 0 0 1 87 677.156 2.159 2.159 0 0 1 84.844 675 2.159 2.159 0 0 1 87 672.844Z" fill="#fff" fill-rule="evenodd" data-name="Path 874"/></svg>