<svg xmlns="http://www.w3.org/2000/svg" width="30" height="30" viewBox="1145 524.75 31 23.25"><path d="M1172.125 532.5h-1.938a1.935 1.935 0 0 0-1.937 1.938v5.812h-15.5v-5.812a1.935 1.935 0 0 0-1.938-1.938h-1.937a3.879 3.879 0 0 0-3.875 3.875 3.824 3.824 0 0 0 1.106 2.688 3.976 3.976 0 0 0 .831.648v7.32c0 .533.436.969.97.969h3.874a.972.972 0 0 0 .969-.969v-.968h15.5v.968c0 .533.436.969.969.969h3.875a.972.972 0 0 0 .968-.969v-7.32a3.87 3.87 0 0 0 1.936-3.203 3.875 3.875 0 0 0 .002-.133 3.879 3.879 0 0 0-3.875-3.875Zm-17.438 1.938v3.875h11.625v-3.875a3.879 3.879 0 0 1 3.875-3.875h1.938a5.814 5.814 0 0 0-5.813-5.813h-11.625a5.814 5.814 0 0 0-5.812 5.813h1.937a3.879 3.879 0 0 1 3.875 3.875Z" fill="#2e2b2b" fill-rule="evenodd" data-name="Path 877"/></svg>