<svg xmlns="http://www.w3.org/2000/svg" width="82.133" height="57.75" viewBox="953.246 7045.25 82.133 57.75"><path d="M1033.663 7054.286c-.945-3.557-3.728-6.358-7.262-7.308-6.405-1.728-32.089-1.728-32.089-1.728a164.332 164.332 0 0 0-.376 0c-2.941.008-22.323.106-30.012 1.375a17.883 17.883 0 0 0-1.7.353 10.32 10.32 0 0 0-7.262 7.308c-1.594 5.986-1.708 18.01-1.716 19.698a46.088 46.088 0 0 0 0 .2s0 13.45 1.716 19.897c.945 3.556 3.728 6.241 7.261 7.192 6.406 1.727 32.09 1.727 32.09 1.727s22.057 0 30.387-1.375a17.883 17.883 0 0 0 1.701-.352 10.166 10.166 0 0 0 7.262-7.192 27.895 27.895 0 0 0 .488-2.254c1.13-6.335 1.22-15.948 1.227-17.445a46.089 46.089 0 0 0 .001-.199s0-13.45-1.716-19.897Zm-47.75 32.11v-24.425l21.466 12.213-21.467 12.212Z" fill="#fafafa" fill-rule="evenodd" data-name="Create New"/></svg>