<svg xmlns="http://www.w3.org/2000/svg" width="30" height="30" viewBox="1394 520.875 31 31"><path d="M1424.031 536.375h-25.187v-11.307a1.288 1.288 0 0 1 1.287-1.285.987.987 0 0 1 .168.016 1.6 1.6 0 0 1 .62.26.975.975 0 0 1 .121.1l1.167 1.167c-.702 1.598-.523 3.165.205 4.37a4.534 4.534 0 0 0 .317.457l-.01.01a.797.797 0 0 0-.106.135 1.202 1.202 0 0 0-.17.45.708.708 0 0 0-.007.1.743.743 0 0 0 .012.126c.035.2.143.429.27.557l.685.685a.797.797 0 0 0 .135.106 1.2 1.2 0 0 0 .454.17.705.705 0 0 0 .097.008.744.744 0 0 0 .126-.012c.16-.028.337-.102.467-.195a.734.734 0 0 0 .092-.077l6.38-6.38a.797.797 0 0 0 .105-.135c.105-.163.178-.381.178-.55 0-.184-.087-.427-.207-.594a.734.734 0 0 0-.077-.09l-.684-.686a1.135 1.135 0 0 0-.589-.276.705.705 0 0 0-.096-.007.744.744 0 0 0-.127.012 1.204 1.204 0 0 0-.467.195.734.734 0 0 0-.09.076l-.011.01c-1.07-.84-2.52-1.207-4.05-.796a5.441 5.441 0 0 0-.778.275l-1.166-1.167c-.678-.678-2.006-1.228-2.965-1.228a4.194 4.194 0 0 0-4.193 4.193v11.307h-.968a.97.97 0 0 0-.969.969v.969a.97.97 0 0 0 .969.968h29.062a.97.97 0 0 0 .969-.968v-.97a.97.97 0 0 0-.969-.968Zm-26.156 12.054v2.477a.97.97 0 0 0 .969.969h1.937a.97.97 0 0 0 .969-.969v-.969h15.5v.97a.97.97 0 0 0 .969.968h1.937a.97.97 0 0 0 .969-.969v-2.477c.931-.828 1.711-2.403 1.896-3.74a4.197 4.197 0 0 0 .041-.564v-2.906h-27.125v2.906c.003 1.191.608 2.731 1.428 3.76a4.4 4.4 0 0 0 .51.544Z" fill="#2e2b2b" fill-rule="evenodd" data-name="Path 878"></path></svg>