<svg width="30" height="30" viewBox="0 0 39 24" fill="none" xmlns="http://www.w3.org/2000/svg">
<g clip-path="url('#clip0_131_12')">
<path d="M10.656 11.625C11.9403 11.6237 13.1716 11.1129 14.0798 10.2048C14.9879 9.29662 15.4987 8.0653 15.5 6.781C15.4987 5.4967 14.9879 4.26538 14.0798 3.35724C13.1716 2.4491 11.9403 1.93832 10.656 1.937C9.3717 1.93832 8.14038 2.4491 7.23224 3.35724C6.3241 4.26538 5.81332 5.4967 5.812 6.781C5.81332 8.0653 6.3241 9.29662 7.23224 10.2048C8.14038 11.1129 9.3717 11.6237 10.656 11.625V11.625ZM31.968 3.875H18.406C18.2787 3.87487 18.1526 3.89984 18.035 3.94849C17.9174 3.99714 17.8105 4.06851 17.7205 4.15852C17.6305 4.24853 17.5591 4.3554 17.5105 4.47302C17.4618 4.59065 17.4369 4.71671 17.437 4.844V13.563H3.875V0.969C3.87513 0.841713 3.85016 0.715649 3.80151 0.598025C3.75286 0.480401 3.68149 0.373526 3.59148 0.28352C3.50147 0.193514 3.3946 0.122143 3.27698 0.0734926C3.15935 0.0248424 3.03329 -0.000131047 2.906 5.17125e-07H0.969001C0.841713 -0.000131047 0.715649 0.0248424 0.598025 0.0734926C0.480401 0.122143 0.373527 0.193514 0.283521 0.28352C0.193514 0.373526 0.122143 0.480401 0.0734933 0.598025C0.0248431 0.715649 -0.000131047 0.841713 5.17111e-07 0.969V22.281C-0.000131047 22.4083 0.0248431 22.5344 0.0734933 22.652C0.122143 22.7696 0.193514 22.8765 0.283521 22.9665C0.373527 23.0565 0.480401 23.1279 0.598025 23.1765C0.715649 23.2252 0.841713 23.2501 0.969001 23.25H2.906C3.03329 23.2501 3.15935 23.2252 3.27698 23.1765C3.3946 23.1279 3.50147 23.0565 3.59148 22.9665C3.68149 22.8765 3.75286 22.7696 3.80151 22.652C3.85016 22.5344 3.87513 22.4083 3.875 22.281V19.375H34.875V22.281C34.8749 22.4083 34.8998 22.5344 34.9485 22.652C34.9971 22.7696 35.0685 22.8765 35.1585 22.9665C35.2485 23.0565 35.3554 23.1279 35.473 23.1765C35.5906 23.2252 35.7167 23.2501 35.844 23.25H37.781C37.9083 23.2501 38.0344 23.2252 38.152 23.1765C38.2696 23.1279 38.3765 23.0565 38.4665 22.9665C38.5565 22.8765 38.6279 22.7696 38.6765 22.652C38.7252 22.5344 38.7501 22.4083 38.75 22.281V10.656C38.75 8.85757 38.0356 7.13279 36.7639 5.86111C35.4922 4.58943 33.7674 3.875 31.969 3.875H31.968Z" fill="black"></path>
</g>
<defs>
<clipPath id="clip0_131_12">
<rect width="38.75" height="23.25" fill="black"></rect>
</clipPath>
</defs>
</svg>
