<svg xmlns="http://www.w3.org/2000/svg" width="30" height="30" viewBox="1146 331.875 27.125 31"><path d="M1146 344.227v15.742a2.907 2.907 0 0 0 2.906 2.906h21.313a2.907 2.907 0 0 0 2.906-2.906v-15.742c0-.4-.327-.727-.727-.727h-25.671a.729.729 0 0 0-.727.727Zm27.125-3.391v-2.18a2.907 2.907 0 0 0-2.906-2.906h-2.907v-3.148a.729.729 0 0 0-.726-.727h-2.422a.729.729 0 0 0-.727.727v3.148h-7.75v-3.148c0-.4-.326-.727-.726-.727h-2.422c-.4 0-.727.327-.727.727v3.148h-2.906a2.907 2.907 0 0 0-2.906 2.906v2.18a.729.729 0 0 0 .727.727h25.671a.729.729 0 0 0 .727-.727Zm-13.345 9.3 2.834 2.834a.308.308 0 0 1 .082.143.307.307 0 0 1-.06.269.317.317 0 0 1-.022.023l-5.752 5.752-2.918.327a.631.631 0 0 1-.068.004.616.616 0 0 1-.61-.682l.327-2.918 5.752-5.752a.308.308 0 0 1 .143-.082.307.307 0 0 1 .269.06.317.317 0 0 1 .023.022Zm6.206-.103-1.574 1.574a.308.308 0 0 1-.144.082.307.307 0 0 1-.292-.082l-2.833-2.833a.308.308 0 0 1-.082-.144.307.307 0 0 1 .06-.269.317.317 0 0 1 .022-.023l1.574-1.574a1.224 1.224 0 0 1 1.662-.065 1.243 1.243 0 0 1 .07.065l1.537 1.537c.456.456.478 1.182.065 1.663a1.243 1.243 0 0 1-.065.07Z" fill="#2e2b2b" fill-rule="evenodd" data-name="Path 876"></path></svg>