<svg xmlns="http://www.w3.org/2000/svg" width="33.906" height="33.906" viewBox="-9.734 1.095 33.906 33.906"><path d="M7.219 1.095c-9.363 0-16.953 7.59-16.953 16.953S-2.144 35 7.219 35s16.953-7.59 16.953-16.953S16.582 1.095 7.219 1.095Zm0 31.718c-8.112 0-14.766-6.566-14.766-14.765C-7.547 9.936-.98 3.282 7.22 3.282c8.111 0 14.765 6.567 14.765 14.766 0 8.112-6.566 14.765-14.765 14.765Zm9.686-19.956-.578-.582a.816.816 0 0 0-.42-.227.82.82 0 0 0-.697.183.832.832 0 0 0-.043.04L3.995 23.352-.721 18.6a.82.82 0 0 0-1.117-.044.832.832 0 0 0-.043.04l-.582.577a.816.816 0 0 0-.226.42.82.82 0 0 0 .182.698.832.832 0 0 0 .04.042l5.87 5.918a.82.82 0 0 0 1.16.005L16.9 14.017a.816.816 0 0 0 .227-.42.82.82 0 0 0-.222-.74Z" fill-rule="evenodd" data-name="+"></path></svg>