<svg xmlns="http://www.w3.org/2000/svg" width="20.25" height="13.5" viewBox="1003 1653.5 20.25 13.5"><path d="M1023.128 1659.737a11.276 11.276 0 0 0-10.003-6.237 11.278 11.278 0 0 0-10.003 6.237.858.858 0 0 0-.038.088 1.375 1.375 0 0 0-.084.425c0 .149.054.377.121.51a.625.625 0 0 0 .001.003 11.276 11.276 0 0 0 10.003 6.237c4.322 0 8.097-2.519 10.003-6.237a.858.858 0 0 0 .038-.088c.049-.133.084-.305.084-.425a.826.826 0 0 0-.005-.083 1.383 1.383 0 0 0-.116-.428.625.625 0 0 0-.001-.002Zm-18.368.513a9.564 9.564 0 0 0 8.365 5.063 9.563 9.563 0 0 0 8.365-5.063 9.563 9.563 0 0 0-8.365-5.062c-3.469 0-6.648 1.933-8.365 5.062Zm8.365-3.937a2.823 2.823 0 0 0-.18.009 4.857 4.857 0 0 0-.895.16 2.148 2.148 0 0 0-.023.006 1.483 1.483 0 0 1 .08.166c.098.238.17.549.174.773a1.089 1.089 0 0 1 0 .01 1.97 1.97 0 0 1-1.969 1.97 1.413 1.413 0 0 1-.15-.01 2.36 2.36 0 0 1-.794-.243 1.064 1.064 0 0 1-.005-.002 2.845 2.845 0 0 0-.043.172c-.062.28-.107.64-.11.89a2.164 2.164 0 0 0 0 .026 3.929 3.929 0 0 0 3.927 3.927 3.929 3.929 0 0 0 3.927-3.927 3.929 3.929 0 0 0-3.927-3.928.444.444 0 0 0-.001 0h-.01Z" fill="#777" fill-rule="evenodd" data-name="Path 881"></path></svg>