<svg xmlns="http://www.w3.org/2000/svg" width="30" height="30" viewBox="75 417 18 24"><path d="M84 417c-4.95 0-9 4.05-9 9a10.254 10.254 0 0 0 .083 1.392c.325 2.387 1.728 4.21 6.246 10.63a667.132 667.132 0 0 1 1.771 2.528c.45.6 1.35.6 1.8 0a579.15 579.15 0 0 1 .063-.09c6.64-9.524 7.96-10.8 8.034-14.146A14.452 14.452 0 0 0 93 426c0-4.95-4.05-9-9-9Zm-2.024 13.273-2.007.225a.435.435 0 0 1-.047.002.424.424 0 0 1-.422-.422.428.428 0 0 1 .002-.047l.225-2.007 4.01-4.01 2.25 2.249-4.01 4.01Zm6.277-6.277-1.324 1.325-2.25-2.25 1.325-1.324a.842.842 0 0 1 1.144-.044.855.855 0 0 1 .047.044l1.058 1.058a.842.842 0 0 1 0 1.191Z" fill="#fff" fill-rule="evenodd" data-name="Path 871"></path></svg>