<svg xmlns="http://www.w3.org/2000/svg" width="43" height="32.25" viewBox="689 8303.75 43 32.25"><path d="M732 8314.802v17.167a4.032 4.032 0 0 1-4.031 4.031H693.03a4.032 4.032 0 0 1-4.03-4.031v-17.175a.489.489 0 0 1 .126-.331.506.506 0 0 1 .617-.11.51.51 0 0 1 .07.046 152.366 152.366 0 0 0 1.61 1.234c1.562 1.18 3.878 2.893 8.24 6.072a2748.688 2748.688 0 0 0 3.084 2.243 15.22 15.22 0 0 1 .025.018c1.702 1.246 4.716 3.98 7.686 3.98a4.824 4.824 0 0 0 .041 0 4.883 4.883 0 0 0 .028 0c2.843 0 5.69-2.479 7.48-3.823a21.178 21.178 0 0 1 .235-.175 3581.848 3581.848 0 0 0 2.939-2.136c4.37-3.182 6.717-4.91 8.297-6.1a139.964 139.964 0 0 0 1.706-1.304.528.528 0 0 1 .132-.076.502.502 0 0 1 .674.373.527.527 0 0 1 .009.097Zm-43-5.425v-1.596a4.032 4.032 0 0 1 4.031-4.03h34.938a4.032 4.032 0 0 1 4.031 4.03v1.596c0 .622-.286 1.201-.773 1.587a26588.373 26588.373 0 0 0-1.033.809c-1.815 1.417-3.63 2.803-11.17 8.286a2959.21 2959.21 0 0 1-2.36 1.714 12.836 12.836 0 0 0-.018.013c-1.407 1.026-4.168 3.464-6.107 3.464a2.279 2.279 0 0 1-.039 0 2.279 2.279 0 0 1-.04 0c-1.744 0-4.155-1.974-5.645-3.117a23.617 23.617 0 0 0-.48-.36c-11.144-8.088-11.992-8.793-14.562-10.809a2.01 2.01 0 0 1-.773-1.587Z" fill="#fafafa" fill-rule="evenodd" data-name="Create New"></path></svg>