<svg xmlns="http://www.w3.org/2000/svg" width="21" height="21" viewBox="75 338.5 21 21"><path d="M96 357.25v-16.5a2.25 2.25 0 0 0-2.25-2.25h-16.5a2.25 2.25 0 0 0-2.25 2.25v16.5a2.25 2.25 0 0 0 2.25 2.25h16.5a2.25 2.25 0 0 0 2.25-2.25Zm-9.436-11.906 2.602 2.601a.29.29 0 0 1 .075.143.29.29 0 0 1 .005.058.278.278 0 0 1-.08.198l-6.361 6.36-2.677.296a.582.582 0 0 1-.06.003.568.568 0 0 1-.567-.566.575.575 0 0 1 .004-.06l.295-2.677 6.36-6.36a.287.287 0 0 1 .404.004Zm4.608.984-1.083 1.083a.29.29 0 0 1-.143.075.29.29 0 0 1-.058.006.278.278 0 0 1-.197-.081l-2.602-2.602a.29.29 0 0 1-.075-.143.29.29 0 0 1-.006-.058.278.278 0 0 1 .081-.197l1.083-1.083a1.108 1.108 0 0 1 .578-.31c.323-.063.67.018.937.242a1.146 1.146 0 0 1 .074.068l1.41 1.411a1.13 1.13 0 0 1 .036 1.553 1.127 1.127 0 0 1-.035.036Z" fill="white" fill-rule="evenodd" data-name="Path 870"></path></svg>