<svg xmlns="http://www.w3.org/2000/svg" width="24" height="24" viewBox="75 577 24 24"><path d="M98.674 597.75 94 593.077a1.124 1.124 0 0 0-.797-.328h-.764a9.701 9.701 0 0 0 2.062-6c0-5.385-4.364-9.749-9.75-9.749S75 581.364 75 586.75a9.748 9.748 0 0 0 9.75 9.748 9.708 9.708 0 0 0 4.77-1.242 9.75 9.75 0 0 0 1.231-.82v.764a1.124 1.124 0 0 0 .329.797l4.673 4.673a1.123 1.123 0 0 0 .55.303c.364.081.759-.02 1.04-.303l1.326-1.327a1.125 1.125 0 0 0 .307-.565 1.129 1.129 0 0 0-.302-1.028ZM78 586.75a6.746 6.746 0 0 0 6.75 6.748 6.746 6.746 0 0 0 6.75-6.749A6.746 6.746 0 0 0 84.75 580a6.746 6.746 0 0 0-6.75 6.75Zm6.75-4.5a3.46 3.46 0 0 0-3.46 3.46 2.416 2.416 0 0 0 .106.659c.449 1.56 2.206 3.76 2.983 4.679a28.427 28.427 0 0 0 .04.047.373.373 0 0 0 .073.065.523.523 0 0 0 .218.087.313.313 0 0 0 .04.003.338.338 0 0 0 .064-.006.5.5 0 0 0 .27-.15 29.93 29.93 0 0 0 .282-.338c.995-1.21 2.846-3.647 2.846-5.045a3.46 3.46 0 0 0-3.461-3.461Zm0 4.5a1.125 1.125 0 1 1 0-2.25 1.125 1.125 0 0 1 0 2.25Z" fill="#fff" fill-rule="evenodd" data-name="Path 873"></path></svg>