<svg xmlns="http://www.w3.org/2000/svg" width="10" height="10" viewBox="71 497 30 24"><path d="m94.34 507.591-9.931-9.932a1.851 1.851 0 0 0-.313-.246 2.788 2.788 0 0 0-1.054-.397 1.638 1.638 0 0 0-.224-.016H73.25a2.25 2.25 0 0 0-2.25 2.25v9.568c0 .427.204.992.481 1.379a1.704 1.704 0 0 0 .178.212l9.932 9.932a2.24 2.24 0 0 0 1.148.615 2.248 2.248 0 0 0 2.034-.615l9.568-9.568a2.25 2.25 0 0 0 .108-3.066 2.282 2.282 0 0 0-.108-.116Zm6 0-9.931-9.932a1.851 1.851 0 0 0-.313-.246c-.38-.242-.887-.413-1.278-.413h-2.284l9.199 9.199a4.191 4.191 0 0 1 1.236 2.983 4.191 4.191 0 0 1-1.236 2.983l-8.159 8.16.017.016a2.25 2.25 0 0 0 3.066.108 2.283 2.283 0 0 0 .116-.108l9.568-9.568a2.24 2.24 0 0 0 .615-1.148 2.249 2.249 0 0 0-.507-1.918 2.283 2.283 0 0 0-.108-.116ZM76.25 504.5a2.25 2.25 0 0 1-2.25-2.25 2.25 2.25 0 0 1 2.25-2.25 2.25 2.25 0 0 1 2.25 2.25 2.25 2.25 0 0 1-2.25 2.25Z" fill="#fff" fill-rule="evenodd" data-name="Path 872"></path></svg>